<?xml version="1.0" standalone="no"?>
<!DOCTYPE svg PUBLIC "-//W3C//DTD SVG 20010904//EN"
 "http://www.w3.org/TR/2001/REC-SVG-20010904/DTD/svg10.dtd">
<svg version="1.0" xmlns="http://www.w3.org/2000/svg"
 width="1088.000000pt" height="1280.000000pt" viewBox="0 0 1088.000000 1280.000000"
 preserveAspectRatio="xMidYMid meet">
<metadata>
Created by potrace 1.15, written by Peter Selinger 2001-2017
</metadata>
<g transform="translate(0.000000,1280.000000) scale(0.100000,-0.100000)"
fill="#000000" stroke="none">
<path d="M6300 12784 c-102 -22 -176 -56 -437 -200 -388 -216 -535 -281 -683
-305 -139 -22 -241 20 -396 162 -234 215 -398 289 -644 289 -262 0 -499 -105
-847 -377 -65 -51 -169 -133 -232 -182 -153 -120 -218 -155 -274 -146 -73 12
-147 35 -347 112 -358 137 -495 173 -667 173 -194 0 -327 -53 -459 -185 -66
-66 -89 -97 -128 -175 -25 -52 -58 -140 -73 -195 -24 -91 -26 -117 -27 -285 0
-169 3 -194 26 -282 79 -291 273 -545 585 -766 127 -90 312 -196 539 -310 366
-183 449 -213 624 -227 182 -15 380 23 763 144 306 98 366 113 436 115 l55 1
14 -45 c38 -118 21 -571 -28 -751 -62 -226 -223 -433 -485 -624 -218 -159
-384 -250 -1077 -586 -626 -304 -844 -422 -1125 -610 -412 -276 -698 -554
-933 -907 -227 -341 -376 -733 -439 -1157 -32 -218 -36 -274 -35 -570 3 -1170
277 -2204 784 -2960 530 -789 1322 -1329 2397 -1635 636 -181 1382 -279 2253
-296 1177 -24 2214 165 3085 562 745 340 1377 892 1767 1544 312 523 492 1098
565 1805 21 212 24 769 5 945 -64 567 -194 1006 -425 1440 -277 519 -716 1009
-1302 1451 -182 138 -258 192 -465 329 -192 128 -284 187 -780 500 -663 419
-955 651 -1174 934 -75 97 -236 330 -236 342 0 5 96 10 214 11 339 3 504 32
787 142 227 87 313 110 728 196 227 47 310 74 456 145 151 75 263 159 399 301
236 246 324 431 313 654 -11 211 -111 373 -310 499 -181 116 -422 170 -752
170 -273 1 -466 -29 -711 -110 -76 -26 -119 -35 -138 -30 -30 8 -114 115 -197
253 -112 188 -185 301 -240 374 -200 264 -463 381 -729 323z"/>
</g>
</svg>
