<?xml version="1.0" standalone="no"?>
<!DOCTYPE svg PUBLIC "-//W3C//DTD SVG 20010904//EN"
 "http://www.w3.org/TR/2001/REC-SVG-20010904/DTD/svg10.dtd">
<svg version="1.0" xmlns="http://www.w3.org/2000/svg"
 width="1280.000000pt" height="956.000000pt" viewBox="0 0 1280.000000 956.000000"
 preserveAspectRatio="xMidYMid meet">
<metadata>
Created by potrace 1.15, written by Peter Selinger 2001-2017
</metadata>
<g transform="translate(0.000000,956.000000) scale(0.100000,-0.100000)"
fill="#000000" stroke="none">
<path d="M7140 9554 c-56 -11 -91 -27 -101 -45 -14 -28 -3 -54 29 -68 47 -22
189 -31 287 -19 177 22 216 11 262 -74 34 -64 63 -77 175 -77 127 -1 327 -22
404 -41 91 -23 163 -60 209 -105 34 -34 35 -38 35 -110 0 -107 -18 -125 -170
-171 -141 -42 -259 -56 -399 -49 -147 8 -146 8 -160 54 -15 52 -66 93 -144
117 -34 10 -79 27 -100 37 -81 42 -371 32 -412 -13 -23 -26 -13 -63 22 -80 36
-18 302 -26 353 -11 66 20 195 -28 205 -77 19 -92 50 -104 290 -105 196 -1
259 9 433 71 76 27 82 28 82 11 0 -12 -7 -19 -19 -19 -31 0 -43 -25 -40 -86 3
-54 1 -59 -32 -88 -19 -17 -51 -51 -71 -76 -34 -43 -98 -149 -98 -163 0 -4 44
-7 98 -7 54 0 101 -2 103 -4 3 -3 3 -23 1 -45 l-4 -41 -920 0 -920 0 67 57
c139 119 108 124 -830 144 -766 15 -860 7 -934 -77 -54 -61 -39 -153 39 -245
28 -34 37 -52 33 -70 -6 -31 4 -40 92 -73 103 -38 191 -94 249 -157 28 -30 88
-120 134 -200 128 -222 306 -457 367 -484 22 -10 19 -14 -62 -105 -245 -274
-476 -610 -702 -1023 -178 -326 -294 -567 -631 -1322 -292 -654 -366 -811
-504 -1080 -226 -439 -423 -753 -652 -1039 l-84 -104 -103 102 c-121 119 -227
197 -369 271 -486 254 -1079 222 -1534 -84 -222 -148 -395 -344 -513 -580 -58
-115 -94 -216 -127 -357 -26 -110 -28 -135 -28 -319 0 -168 4 -216 22 -298
135 -611 584 -1060 1184 -1186 l93 -20 -867 0 c-572 -1 -868 -4 -868 -11 0 -7
2137 -10 6390 -10 4253 0 6390 3 6390 10 0 7 -673 10 -1997 11 -1757 1 -1984
3 -1883 15 986 119 1868 608 2481 1376 490 614 773 1369 808 2153 28 653 -104
1269 -399 1850 -310 614 -764 1108 -1360 1484 -130 81 -447 240 -590 296 -372
144 -773 233 -1142 252 l-128 6 0 107 0 106 41 39 c60 58 169 212 169 238 0 4
-47 7 -105 7 l-105 0 0 205 0 205 105 0 106 0 -17 33 c-32 61 -98 152 -146
200 -47 47 -48 49 -48 112 0 61 -2 65 -25 71 l-25 6 0 152 c0 150 0 153 -29
197 -89 141 -259 200 -612 214 -182 8 -185 8 -204 48 -34 69 -55 84 -185 128
-82 28 -111 32 -215 35 -66 1 -131 0 -145 -2z m859 -1368 c-2 -2 -53 -9 -114
-16 -304 -32 -632 -109 -903 -211 -142 -53 -423 -192 -544 -268 -53 -34 -99
-61 -102 -61 -3 0 -6 6 -6 14 0 26 -37 28 -82 5 -93 -47 -234 -159 -397 -314
l-84 -80 -51 58 c-79 91 -168 219 -252 366 -43 74 -93 154 -112 179 -32 42
-33 44 -10 39 57 -14 235 -29 276 -23 74 10 141 48 242 138 87 76 173 136 240
166 18 7 299 11 964 11 517 1 937 -1 935 -3z m386 -211 c0 -19 -8 -20 -102
-23 -70 -2 -103 -6 -103 -14 0 -26 87 -156 142 -213 l59 -60 0 -105 1 -105
-49 -2 c-949 -46 -1824 -430 -2483 -1093 -612 -614 -971 -1372 -1071 -2260
-17 -150 -17 -592 0 -735 89 -761 348 -1391 809 -1970 123 -154 403 -434 557
-557 553 -440 1186 -709 1880 -798 137 -18 75 -18 -2865 -18 -2942 0 -3003 0
-2915 18 462 94 849 390 1060 810 216 430 210 951 -16 1378 l-50 94 38 45
c179 213 386 511 548 788 102 174 312 581 416 805 39 85 176 390 305 677 391
876 551 1200 766 1556 657 1091 1440 1634 2554 1772 149 19 358 33 454 31 58
-1 65 -3 65 -21z m-32 -907 l27 -133 0 -720 0 -720 -80 -294 c-44 -162 -82
-297 -85 -300 -4 -3 -9 -1 -13 5 -4 6 -193 218 -420 472 l-412 461 -40 148
c-62 234 -240 915 -240 919 0 19 316 132 510 183 224 58 502 103 681 109 l45
2 27 -132z m33 57 c1 -84 -7 -86 -24 -7 -16 71 -15 82 6 82 15 0 17 -11 18
-75z m452 60 c4 -4 -233 -882 -249 -920 -4 -11 -8 196 -8 459 l-1 479 127 -7
c70 -4 129 -9 131 -11z m257 -36 c315 -58 588 -146 876 -281 60 -28 108 -56
106 -62 -3 -6 -80 -241 -173 -523 l-168 -512 -443 -443 c-244 -244 -447 -444
-452 -446 -13 -4 -11 -15 -121 518 -56 267 -110 527 -121 579 -10 51 -19 110
-19 131 0 29 120 484 266 1009 l18 63 60 -6 c34 -4 111 -16 171 -27z m-2011
-301 c8 -29 67 -253 131 -498 64 -245 118 -452 121 -460 7 -21 21 -36 -362
393 -340 380 -342 382 -321 399 35 28 390 217 409 218 4 0 14 -24 22 -52z
m3109 -94 c45 -26 137 -83 205 -127 l123 -81 -373 -373 c-204 -205 -374 -371
-376 -369 -6 7 323 996 331 996 4 0 45 -21 90 -46z m-3242 -476 c183 -205 347
-389 365 -408 31 -33 40 -62 134 -420 56 -212 128 -486 161 -609 32 -124 56
-227 54 -230 -3 -2 -33 5 -68 16 -34 12 -304 101 -600 199 l-538 177 -382 389
c-210 214 -383 393 -385 397 -4 12 158 210 255 312 110 116 240 239 336 317
104 85 309 232 324 232 7 0 162 -168 344 -372z m3658 200 c205 -162 398 -349
553 -539 108 -131 240 -319 236 -334 -3 -12 -776 -707 -813 -731 -11 -7 -157
-48 -325 -92 -168 -44 -437 -115 -598 -157 -161 -43 -295 -75 -298 -72 -7 6
23 99 237 745 l150 453 392 389 c216 214 394 389 396 390 2 0 33 -23 70 -52z
m-1909 -1077 c61 -294 109 -540 108 -545 -2 -6 -54 -60 -115 -120 l-113 -109
1 664 c0 365 2 660 4 654 2 -5 54 -250 115 -544z m-876 -100 c297 -332 385
-438 381 -452 -9 -27 -105 -379 -105 -384 0 -2 -91 27 -202 64 l-203 68 -108
409 c-59 225 -129 494 -156 598 l-50 189 29 -29 c15 -16 202 -224 414 -463z
m-1417 -277 c-7 -7 -992 325 -990 334 5 20 117 208 186 312 l71 105 368 -375
c202 -205 366 -375 365 -376z m3123 120 c-99 -302 -186 -562 -193 -578 -13
-28 -23 -32 -212 -82 -110 -29 -200 -52 -202 -50 -2 1 -22 95 -45 207 l-42
204 434 432 c239 237 436 428 438 424 1 -4 -79 -254 -178 -557z m1975 296 c63
-112 150 -289 144 -293 -2 -2 -224 -61 -494 -131 -269 -70 -499 -130 -510
-133 -26 -7 -58 -36 389 362 l380 338 18 -23 c10 -12 43 -66 73 -120z m-3120
-380 c0 -192 -3 -349 -6 -347 -3 1 -38 38 -77 82 -49 54 -70 86 -66 97 3 10
34 125 70 255 67 247 72 263 76 263 2 0 3 -157 3 -350z m-2448 95 l508 -167
298 -296 c164 -164 305 -313 315 -332 9 -19 28 -40 42 -47 14 -7 74 -61 134
-122 101 -102 108 -110 85 -116 -13 -3 -292 -61 -621 -130 l-596 -124 -159 44
c-87 24 -318 87 -513 140 -195 53 -364 101 -376 105 -21 8 -21 9 -8 107 46
337 151 687 305 1011 35 76 53 103 63 99 8 -3 243 -81 523 -172z m5771 -140
c90 -228 155 -461 197 -708 24 -143 51 -404 43 -413 -7 -6 -1054 -224 -1079
-224 -25 0 -1201 320 -1212 330 -5 4 204 196 462 427 452 403 473 421 529 435
65 17 794 209 922 243 47 12 88 19 92 16 3 -3 24 -51 46 -106z m-4611 -244
l582 -191 10 -38 c5 -20 23 -90 40 -154 17 -64 31 -122 31 -127 0 -8 -54 19
-108 54 -1 1 4 15 13 31 27 53 13 154 -25 174 -11 6 -128 10 -278 10 -295 0
-300 -1 -311 -76 l-6 -40 -275 280 c-151 154 -270 277 -265 274 6 -3 272 -92
592 -197z m1212 -14 l73 -84 -1 -124 c-2 -129 -12 -159 -50 -159 -14 0 -201
59 -209 66 -6 5 102 393 108 389 3 -2 39 -42 79 -88z m552 -131 c22 -108 39
-199 37 -200 -1 -1 -50 -15 -108 -30 l-105 -28 -52 57 c-51 56 -53 61 -53 114
l0 56 117 117 c64 65 118 116 120 115 1 -2 21 -92 44 -201z m1257 -172 c-233
-207 -440 -393 -460 -412 l-37 -36 -198 54 c-109 29 -201 55 -205 57 -3 1 24
93 60 203 l67 200 50 14 c27 8 235 63 460 121 226 59 464 122 530 140 66 18
128 33 138 34 9 0 -173 -168 -405 -375z m-2210 51 c100 -32 182 -63 182 -69
-1 -6 -13 -56 -29 -111 l-28 -100 -79 -18 c-81 -18 -103 -16 -147 17 -21 17
-113 350 -94 343 7 -2 94 -30 195 -62z m1398 -37 c-55 -181 -112 -338 -124
-338 -7 0 -58 12 -112 26 l-98 27 -22 109 c-12 61 -19 113 -15 116 7 8 341 99
367 101 15 1 16 -3 4 -41z m-650 -105 c-1 -1 -19 0 -39 4 -36 5 -37 7 -37 47
l0 41 39 -45 c21 -25 38 -46 37 -47z m-426 35 c85 -28 92 -32 70 -41 -76 -30
-155 -69 -195 -97 -47 -33 -53 -28 -36 26 5 16 17 55 26 87 8 31 21 57 28 57
6 0 55 -14 107 -32z m694 -80 c10 -46 20 -94 23 -108 l6 -25 -29 26 c-42 38
-149 106 -190 119 -20 7 -32 15 -29 18 9 9 155 50 181 51 19 1 23 -9 38 -81z
m-534 68 c0 -3 -4 -8 -10 -11 -5 -3 -10 -1 -10 4 0 6 5 11 10 11 6 0 10 -2 10
-4z m-840 -153 c105 -60 129 -78 114 -84 -11 -4 -81 -19 -157 -35 l-138 -28
-104 104 c-58 58 -105 108 -105 112 0 5 58 8 129 8 l129 0 132 -77z m1099 -7
c8 -6 20 -26 28 -44 11 -27 11 -38 1 -60 -13 -27 -74 -65 -90 -56 -9 6 -11
167 -2 176 7 8 45 -2 63 -16z m-266 -73 c-2 -85 -2 -88 -25 -85 -34 4 -67 29
-74 57 -14 56 24 115 74 115 l27 0 -2 -87z m-363 39 c0 -5 -12 -20 -28 -35
l-27 -26 -35 22 -34 22 54 11 c72 15 70 15 70 6z m1073 -62 c48 -13 87 -28 87
-35 0 -13 -57 -186 -64 -192 -2 -2 -11 18 -20 45 -15 45 -49 108 -101 187 -15
22 -16 28 -5 23 8 -3 54 -15 103 -28z m-1266 -115 c10 -38 18 -74 18 -78 0 -4
-38 -41 -85 -82 l-85 -75 -142 142 c-78 78 -141 144 -139 146 2 2 75 18 163
36 l158 33 47 -26 c45 -25 48 -29 65 -96z m408 90 c17 -16 25 -35 25 -59 0
-41 -8 -66 -22 -66 -20 0 -148 83 -148 95 0 23 51 55 87 55 23 0 42 -8 58 -25z
m606 12 c43 -33 50 -93 16 -133 -30 -35 -98 -38 -130 -5 -31 30 -29 92 2 125
27 29 83 35 112 13z m599 -82 c74 -20 139 -40 143 -44 6 -6 -158 -160 -277
-260 -17 -15 -23 -11 -96 67 l-77 84 32 98 c18 54 36 103 39 109 4 6 22 5 54
-4 26 -7 108 -30 182 -50z m-3880 -86 c261 -72 476 -132 478 -134 2 -2 -5 -6
-15 -9 -36 -10 -985 -206 -1000 -206 -14 0 -15 22 -10 203 4 111 10 221 13
245 6 41 8 43 33 37 14 -3 240 -65 501 -136z m1953 -37 l147 -147 -159 -142
-159 -142 -543 150 c-299 82 -565 155 -592 161 -26 6 -44 15 -40 19 5 4 78 21
163 38 85 17 344 72 575 120 231 49 429 89 440 90 13 1 70 -49 168 -147z m366
130 c22 -17 22 -18 5 -57 l-17 -40 -13 40 c-23 74 -16 91 25 57z m1929 -108
c92 -25 347 -95 567 -155 220 -60 408 -113 419 -117 12 -5 -189 -51 -585 -134
l-604 -126 -148 146 c-81 81 -146 150 -145 154 6 16 303 277 316 277 8 1 89
-20 180 -45z m-841 -26 c32 -30 32 -90 -2 -123 -53 -54 -149 -15 -149 60 0 30
7 44 33 67 27 24 39 29 64 24 17 -4 41 -16 54 -28z m-860 2 c77 -46 42 -153
-49 -153 -36 0 -88 50 -88 84 0 25 26 76 42 82 27 11 64 6 95 -13z m-267 -96
c-6 -43 -8 -106 -4 -139 l6 -60 -76 75 c-72 70 -75 75 -58 91 66 62 135 120
139 116 2 -3 -1 -40 -7 -83z m4109 -126 c-2 -209 -10 -314 -24 -311 -21 3
-971 264 -989 271 -12 5 151 43 485 114 277 58 510 106 517 107 9 1 12 -41 11
-181z m-2745 93 c38 -38 67 -74 65 -80 -5 -13 -151 -143 -156 -138 -2 2 2 28
8 56 6 29 9 93 7 142 -1 49 -1 89 2 89 3 0 36 -31 74 -69z m-2975 -15 c481
-131 1086 -298 1089 -301 2 -1 -209 -192 -468 -423 -426 -380 -477 -423 -523
-436 -78 -22 -1013 -266 -1020 -266 -6 0 -76 175 -114 285 -34 98 -68 222 -97
351 -49 220 -94 592 -71 600 14 5 1047 222 1064 223 7 1 70 -14 140 -33z
m1572 -278 c-18 -57 -37 -107 -41 -111 -5 -6 -376 87 -388 98 -2 2 65 64 149
139 l153 137 80 -80 80 -81 -33 -102z m320 193 c37 -37 38 -79 3 -120 -35 -42
-84 -43 -125 -2 -32 33 -36 58 -14 101 30 58 89 67 136 21z m844 3 c34 -36 34
-92 1 -123 l-24 -23 -66 38 c-36 21 -66 42 -66 47 0 17 31 66 47 76 34 20 82
13 108 -15z m474 -146 c74 -76 133 -139 130 -141 -2 -2 -66 -16 -142 -31
l-138 -27 -63 35 c-75 42 -80 47 -95 110 -14 56 -21 44 88 140 36 31 69 55 75
54 6 -2 71 -65 145 -140z m1966 -41 l520 -143 -3 -59 c-5 -118 -71 -425 -132
-620 -47 -148 -197 -502 -226 -534 -2 -2 -240 75 -530 170 l-527 174 -273 279
c-243 248 -274 283 -274 311 0 48 -31 81 -81 88 -38 5 -55 18 -151 114 l-109
109 603 126 c332 69 617 127 633 127 17 0 264 -64 550 -142z m-3500 -58 c10
-18 33 -55 51 -81 19 -27 30 -48 25 -48 -13 0 -193 48 -197 53 -3 3 43 150 62
197 4 10 13 -3 24 -36 10 -27 25 -66 35 -85z m332 49 c33 -31 32 -96 -1 -127
-57 -53 -146 -15 -146 63 0 55 30 86 84 86 27 0 47 -7 63 -22z m643 -76 c0
-37 -43 -72 -87 -72 -67 1 -104 53 -83 116 18 54 35 56 106 15 49 -28 64 -41
64 -59z m233 66 c6 -40 4 -43 -21 -27 -17 10 -18 17 -9 36 14 32 24 29 30 -9z
m-1570 -72 c109 -30 201 -57 204 -60 3 -2 -25 -94 -61 -203 l-66 -198 -418
-109 c-229 -60 -496 -131 -592 -156 -96 -26 -177 -46 -179 -44 -2 1 12 16 30
32 55 48 884 791 884 791 0 1 89 -23 198 -53z m891 -37 c31 -37 33 -77 6 -112
-24 -30 -78 -44 -109 -28 -24 13 -51 61 -51 91 0 12 13 35 29 51 41 41 90 40
125 -2z m219 11 c34 -27 41 -63 22 -104 -41 -85 -165 -59 -165 34 0 76 83 117
143 70z m1045 -103 c56 -56 102 -105 102 -109 0 -4 -46 -6 -103 -6 l-103 0
-132 76 c-73 41 -132 79 -132 82 0 5 218 55 255 59 6 1 56 -45 113 -102z
m-605 23 c-8 -7 -114 -30 -140 -30 -9 0 1 17 23 43 l38 43 44 -24 c24 -14 40
-28 35 -32z m-1210 13 c56 -15 104 -28 105 -29 5 -3 53 -227 50 -229 -8 -5
-384 -102 -386 -99 -5 4 118 384 124 384 3 0 51 -12 107 -27z m1330 -222 c27
-100 46 -185 43 -188 -2 -3 -88 23 -190 57 -143 47 -186 66 -186 78 0 9 13 60
28 112 l27 94 80 17 c44 10 96 17 115 16 l35 -2 48 -184z m-1079 99 c32 -22
74 -45 92 -52 19 -7 34 -15 34 -18 0 -8 -193 -61 -198 -55 -5 5 -41 173 -42
193 0 9 9 7 28 -8 15 -12 53 -39 86 -60z m1149 12 c42 -24 77 -46 77 -50 0 -4
-7 -16 -15 -26 -18 -23 -20 -105 -4 -139 20 -43 45 -47 305 -47 264 0 295 5
307 52 6 22 6 22 38 -7 86 -82 470 -485 458 -481 -206 69 -956 315 -1042 343
-86 27 -119 42 -123 56 -22 69 -91 347 -85 345 3 -2 41 -22 84 -46z m-399 -63
c-14 -52 -28 -97 -30 -100 -4 -8 -203 53 -204 62 0 3 19 11 43 18 44 13 145
67 187 100 14 11 26 19 27 17 2 -1 -9 -45 -23 -97z m-395 -51 l113 0 -73 -75
-74 -74 -72 78 c-40 43 -73 81 -73 85 0 4 15 2 33 -3 17 -6 83 -11 146 -11z
m-191 -305 c-78 -78 -145 -140 -148 -137 -5 6 -88 387 -85 392 2 2 49 16 106
32 l104 28 82 -86 83 -87 -142 -142z m430 267 c51 -16 99 -33 106 -37 11 -6 3
-47 -38 -198 -29 -104 -56 -189 -60 -188 -4 1 -66 68 -138 148 l-131 147 79
79 c43 43 81 79 84 79 3 0 47 -13 98 -30z m-640 -225 l42 -204 -437 -435
c-241 -239 -439 -433 -440 -432 -4 4 379 1161 387 1169 9 10 353 104 385 106
19 1 24 -17 63 -204z m985 113 c104 -35 192 -70 197 -78 11 -20 312 -1171 308
-1176 -3 -3 -745 824 -797 888 l-24 29 53 192 c54 198 57 207 68 207 3 0 91
-28 195 -62z m-7144 -236 l45 -212 -64 -233 c-34 -127 -66 -235 -69 -239 -5
-6 -315 333 -332 365 -9 15 -109 398 -109 415 0 34 334 123 445 119 l39 -2 45
-213z m157 201 c-2 -10 -26 -94 -51 -188 -25 -93 -47 -171 -49 -172 -2 -2 -18
68 -35 154 -18 87 -36 173 -41 191 l-8 32 94 0 c86 0 95 -2 90 -17z m5524 10
c0 -4 -67 -210 -149 -457 -83 -248 -171 -516 -196 -594 l-47 -144 -390 -386
c-214 -213 -394 -388 -399 -390 -12 -5 -174 126 -309 250 -174 159 -346 358
-494 571 -58 83 -66 101 -55 112 8 7 185 164 394 350 209 186 390 347 401 357
14 13 169 58 455 133 239 63 511 134 604 159 189 50 185 49 185 39z m-5383
-17 c155 -33 369 -115 361 -139 -3 -6 -35 -102 -72 -212 l-66 -200 -175 -175
c-96 -96 -176 -172 -178 -170 -6 8 -99 464 -99 485 0 18 76 308 103 393 12 37
24 39 126 18z m6503 -310 c0 -6 -9 -45 -21 -86 -11 -41 -79 -289 -150 -550
-136 -498 -149 -543 -154 -538 -2 2 -56 255 -120 563 -64 308 -120 577 -125
598 l-8 38 151 148 150 148 139 -155 c76 -85 138 -159 138 -166z m1180 75
l585 -192 263 -262 c145 -144 321 -323 392 -398 l129 -135 -87 -110 c-208
-261 -544 -567 -813 -738 l-26 -17 -369 413 -368 413 -62 235 c-177 671 -254
969 -254 980 0 7 6 10 13 8 6 -3 275 -92 597 -197z m-8443 -225 c-3 -10 -247
260 -247 274 0 5 35 27 78 49 l77 39 47 -177 c26 -97 46 -180 45 -185z m1274
243 l24 -18 -135 -135 c-73 -75 -135 -134 -137 -133 -2 2 95 311 112 354 4 12
80 -26 136 -68z m-1392 -152 c72 -81 136 -158 141 -171 17 -47 121 -458 116
-463 -3 -3 -107 29 -233 71 l-228 76 -160 160 -159 159 20 23 c110 130 205
220 299 284 39 26 52 31 61 21 6 -6 70 -79 143 -160z m1623 -46 l69 -74 -118
-120 c-115 -116 -286 -260 -410 -346 -66 -46 -193 -90 -193 -68 0 7 34 114 75
237 l75 225 157 157 156 157 60 -47 c33 -26 91 -80 129 -121z m3352 90 c-588
-524 -766 -681 -774 -681 -21 0 -235 399 -227 423 2 6 50 23 108 38 375 97
885 231 888 235 2 2 7 2 10 -1 2 -3 0 -9 -5 -14z m1829 -58 c85 -400 237
-1145 237 -1159 0 -11 -65 -255 -144 -544 l-143 -525 -34 3 c-217 19 -585 110
-829 204 -123 48 -350 154 -350 163 0 4 77 240 170 524 l170 518 448 446 c246
246 450 447 453 447 3 0 13 -35 22 -77z m1028 -421 l417 -467 107 -410 c59
-225 122 -464 140 -530 29 -108 31 -121 17 -132 -9 -7 -62 -31 -119 -53 -309
-121 -692 -208 -999 -227 -103 -6 -103 -6 -109 18 -12 50 -197 947 -208 1005
l-10 60 147 540 c179 654 186 678 194 669 4 -4 194 -217 423 -473z m1839 203
c245 -81 461 -152 480 -158 19 -6 39 -14 44 -18 5 -5 -15 -50 -44 -101 -62
-109 -199 -318 -209 -318 -3 0 -173 170 -376 377 -204 207 -363 374 -355 371
9 -3 216 -72 460 -153z m-8984 -104 l43 -206 -57 -58 -57 -58 -52 57 c-29 31
-53 62 -53 67 0 11 108 405 117 427 7 18 2 39 59 -229z m-949 -128 c-4 -3
-356 112 -363 119 -3 3 16 40 42 83 l47 77 138 -138 c76 -76 137 -139 136
-141z m589 97 c71 -80 135 -153 143 -162 11 -15 11 -28 -4 -88 -9 -39 -21 -72
-25 -75 -6 -4 -137 32 -149 41 -3 3 -121 443 -121 454 0 6 4 1 156 -170z m685
-92 l-71 -214 -64 -17 c-35 -9 -71 -17 -79 -17 -9 0 -19 25 -31 77 l-17 78
163 156 c90 86 165 155 167 153 1 -1 -29 -99 -68 -216z m845 79 c10 -22 14
-41 8 -46 -8 -6 -240 -71 -257 -71 -3 0 40 45 96 100 l102 99 17 -22 c9 -12
25 -39 34 -60z m-2287 -53 l206 -66 172 -177 c94 -97 169 -179 165 -183 -4 -3
-113 -28 -242 -54 l-235 -48 -210 58 c-116 32 -211 59 -213 60 -5 5 29 172 49
239 22 74 88 237 96 237 3 0 98 -30 212 -66z m2345 -84 c14 -38 34 -105 45
-147 20 -78 47 -260 40 -268 -2 -2 -100 -23 -218 -48 l-215 -45 -235 65 c-130
35 -238 66 -240 69 -6 5 14 21 124 96 103 70 181 128 280 209 68 55 75 58 220
97 83 22 155 40 161 41 7 1 23 -30 38 -69z m-1648 -154 c11 -10 48 -146 42
-151 -2 -1 -38 -9 -80 -17 l-76 -15 -161 161 c-89 89 -161 164 -161 168 0 9
422 -132 436 -146z m304 -30 c-28 -28 -30 -29 -70 -17 -25 7 -40 17 -37 24 2
7 12 39 21 71 l18 60 48 -55 49 -54 -29 -29z m179 58 c14 -70 12 -78 -31 -88
-22 -5 -34 0 -60 23 l-33 30 50 50 c27 28 52 51 55 51 4 0 12 -30 19 -66z
m-370 -59 c52 -17 53 -18 47 -49 -8 -38 -22 -52 -62 -60 -31 -7 -31 -6 -48 52
-19 70 -20 86 -3 80 6 -3 36 -13 66 -23z m612 4 c-18 -11 -36 -17 -40 -14 -9
10 30 35 53 35 17 0 14 -4 -13 -21z m-366 -9 c3 -5 -3 -10 -15 -10 -12 0 -18
5 -15 10 3 6 10 10 15 10 5 0 12 -4 15 -10z m305 4 c0 -20 -28 -48 -71 -70
-28 -14 -53 -24 -55 -21 -2 2 -6 17 -10 33 -6 30 -5 30 58 46 77 19 78 19 78
12z m-458 -39 c0 -5 -5 -11 -11 -13 -6 -2 -11 4 -11 13 0 9 5 15 11 13 6 -2
11 -8 11 -13z m298 -10 c0 -9 -6 -12 -15 -9 -8 4 -12 10 -9 15 8 14 24 10 24
-6z m-180 -81 c0 -28 -25 -42 -49 -27 -25 16 -25 42 1 52 32 12 48 3 48 -25z
m74 23 c25 -19 17 -52 -13 -52 -32 0 -49 28 -32 49 16 19 22 20 45 3z m-307
-44 c-15 -16 -17 -16 -17 -1 0 9 6 18 13 21 20 7 22 -2 4 -20z m-33 -9 c12
-32 5 -61 -22 -87 l-28 -27 -49 50 c-27 27 -47 52 -44 55 7 7 80 23 110 24 16
1 29 -5 33 -15z m184 -10 c4 -25 -22 -49 -43 -40 -22 8 -29 34 -14 52 17 21
53 14 57 -12z m-1103 -45 c88 -23 164 -46 168 -49 7 -6 -329 -80 -360 -80 -14
0 -17 77 -7 143 5 28 11 36 23 33 9 -3 88 -24 176 -47z m6399 -81 c-24 -73
-99 -299 -165 -501 l-120 -368 -67 37 c-93 52 -215 128 -291 182 l-63 45 368
368 c203 203 372 369 376 369 4 0 -13 -60 -38 -132z m-5602 65 l57 -58 -60
-54 -60 -53 -207 56 c-114 31 -216 60 -226 64 -13 6 52 23 200 54 120 25 224
47 229 47 6 1 36 -25 67 -56z m1098 -39 c113 -31 206 -57 208 -59 4 -4 -70
-20 -291 -66 l-159 -32 -56 57 -57 57 60 54 c33 30 67 52 75 50 8 -2 107 -30
220 -61z m-846 40 c9 -8 16 -19 16 -24 0 -16 -33 -41 -47 -36 -8 3 -17 6 -19
6 -8 0 -4 31 6 51 13 23 24 24 44 3z m526 -24 c-43 -38 -60 -44 -67 -24 -3 9
81 61 102 63 6 0 -10 -17 -35 -39z m7679 -405 c177 -198 321 -362 321 -365 0
-16 -394 -230 -423 -230 -8 0 -22 33 -36 88 -37 145 -231 886 -237 907 -9 30
14 5 375 -400z m-6659 315 c0 -64 -4 -90 -12 -90 -21 0 -358 94 -358 100 0 5
325 77 358 79 9 1 12 -23 12 -89z m-1683 43 c-3 -3 -11 -2 -17 2 -8 5 -7 11 2
22 12 15 13 14 16 -1 2 -10 1 -20 -1 -23z m-435 -45 c125 -34 228 -65 228 -69
0 -4 -83 -80 -184 -170 l-183 -163 -204 -53 c-112 -29 -209 -53 -215 -53 -13
0 -67 156 -89 255 -23 105 -34 226 -21 231 28 10 385 82 410 83 17 1 132 -27
258 -61z m1020 20 c-9 -9 -12 -7 -12 12 0 19 3 21 12 12 9 -9 9 -15 0 -24z
m-582 -49 c0 -63 -13 -69 -100 -43 l-54 16 52 50 53 50 25 -23 c14 -13 24 -34
24 -50z m139 47 c15 -18 -2 -56 -24 -56 -18 0 -38 37 -31 56 7 18 40 18 55 0z
m341 -20 c0 -28 -26 -42 -46 -25 -20 17 -17 24 14 36 15 6 28 11 30 12 1 1 2
-10 2 -23z m184 -35 l48 -49 -68 -16 c-38 -8 -72 -12 -75 -8 -4 4 -10 21 -14
39 -5 27 -2 37 19 58 14 14 29 25 33 25 5 0 30 -22 57 -49z m798 -18 l210 -58
-7 -52 c-14 -112 -102 -384 -135 -417 -7 -7 -74 11 -214 57 l-204 68 -176 177
c-140 141 -172 178 -158 184 9 4 105 25 212 47 107 22 204 42 215 44 38 9 49
7 257 -50z m-1022 -15 c0 -6 -7 -20 -16 -29 -13 -14 -21 -16 -35 -8 -24 12
-25 45 -2 58 20 11 53 -3 53 -21z m-252 -4 c2 -11 -4 -27 -13 -34 -14 -11 -19
-10 -36 6 -27 27 -16 56 20 52 17 -2 27 -10 29 -24z m-158 -14 c9 -16 8 -20
-5 -20 -8 0 -15 9 -15 20 0 11 2 20 5 20 2 0 9 -9 15 -20z m-127 -6 c34 -9 65
-18 69 -20 12 -8 -43 -153 -60 -158 -21 -6 -172 -46 -321 -85 l-115 -30 30 29
c77 77 311 279 323 280 7 0 41 -7 74 -16z m355 -6 c16 -16 15 -47 -2 -54 -18
-7 -56 13 -56 29 0 16 20 37 35 37 6 0 16 -5 23 -12z m100 -19 c2 -20 -2 -28
-19 -32 -39 -10 -64 24 -37 51 21 21 53 10 56 -19z m182 11 c0 -11 -7 -20 -15
-20 -13 0 -13 3 -3 20 7 11 14 20 15 20 2 0 3 -9 3 -20z m360 -166 c91 -92
158 -164 150 -162 -8 3 -107 36 -220 72 -113 37 -209 71 -213 75 -5 5 -17 40
-27 80 l-18 71 26 6 c15 3 41 10 57 14 71 19 72 19 245 -156z m-828 128 c5 -5
11 -24 14 -44 l6 -35 -59 -16 c-33 -10 -64 -17 -71 -17 -9 0 0 39 33 127 4 13
60 2 77 -15z m500 -69 c18 -73 17 -74 -67 -44 -45 16 -50 21 -48 46 1 15 10
36 19 46 16 18 63 30 75 19 3 -3 13 -33 21 -67z m6273 -489 c57 -274 101 -503
98 -508 -7 -10 -392 0 -454 12 l-36 7 133 484 c73 266 136 496 140 510 5 18 8
21 11 10 2 -9 51 -241 108 -515z m-6705 495 c0 -5 -7 -9 -15 -9 -8 0 -15 7
-15 15 0 9 6 12 15 9 8 -4 15 -10 15 -15z m294 -4 c-4 -8 -12 -15 -20 -15 -17
0 -18 17 -1 23 22 9 27 7 21 -8z m-204 -40 l24 -25 -49 -50 c-27 -27 -52 -47
-56 -42 -3 4 -11 34 -18 66 -13 67 -8 76 45 76 20 0 39 -9 54 -25z m159 14
c17 -6 31 -13 31 -15 0 -20 -34 -134 -39 -132 -4 2 -27 25 -51 51 -35 39 -42
52 -33 65 7 13 46 40 59 42 1 0 15 -5 33 -11z m-99 -9 c0 -5 -6 -10 -14 -10
-8 0 -18 5 -21 10 -3 6 3 10 14 10 12 0 21 -4 21 -10z m-186 -17 c2 -10 10
-45 16 -77 l12 -59 -163 -163 c-90 -90 -164 -162 -166 -161 -1 2 30 101 70
222 l72 218 60 17 c79 23 93 23 99 3z m427 -22 l65 -21 58 -221 c32 -121 56
-222 54 -224 -3 -2 -217 234 -281 311 -25 30 -27 38 -18 67 5 17 15 52 21 75
7 26 16 42 23 39 7 -2 42 -14 78 -26z m-647 -113 c-19 -57 -53 -161 -75 -233
l-41 -130 -158 -159 -158 -160 -73 60 c-76 62 -183 178 -237 256 -18 26 -32
49 -32 51 0 3 62 60 138 128 75 67 149 133 163 146 20 18 83 39 250 83 123 32
232 59 241 59 14 1 12 -13 -18 -101z m432 -242 c-34 -123 -64 -219 -67 -213
-3 7 -26 110 -50 229 l-44 217 55 56 55 56 56 -60 56 -60 -61 -225z m539 249
c116 -37 221 -74 235 -81 14 -7 90 -81 168 -164 l144 -151 -17 -26 c-53 -80
-320 -321 -345 -311 -4 2 -72 76 -151 165 l-144 161 -59 229 c-33 125 -62 234
-65 242 -3 9 1 13 10 9 8 -3 109 -36 224 -73z m-665 -286 l50 -244 -58 -210
-58 -210 -35 3 c-98 9 -321 76 -420 127 l-28 15 70 207 69 208 177 177 c97 98
178 176 180 175 1 -2 25 -113 53 -248z m-831 218 c-15 -12 -80 -69 -144 -127
-112 -99 -118 -103 -132 -85 -21 28 -75 136 -70 141 6 6 331 92 352 93 18 0
17 -2 -6 -22z m1214 -176 l154 -173 56 -212 c31 -116 53 -214 49 -218 -16 -16
-224 -77 -311 -92 -135 -23 -169 -22 -176 7 -3 12 -23 108 -45 214 l-40 192
65 236 c36 130 65 239 65 242 0 10 5 4 183 -196z m937 17 c0 -5 -21 -41 -46
-80 l-46 -71 -134 134 c-74 73 -134 137 -134 141 0 3 81 -21 180 -54 99 -33
180 -64 180 -70z m-1822 -380 c-34 -101 -62 -185 -64 -187 -4 -5 -154 89 -154
96 0 5 270 271 277 273 1 0 -26 -82 -59 -182z m1207 5 c66 -75 121 -139 123
-143 1 -4 -33 -26 -78 -49 -58 -31 -81 -39 -85 -29 -2 7 -23 85 -46 172 -22
87 -43 165 -46 172 -13 34 20 3 132 -123z m-603 -171 c20 -97 33 -181 29 -185
-12 -12 -171 4 -171 17 0 23 94 355 100 350 3 -3 22 -85 42 -182z"/>
</g>
</svg>
